<?xml version="1.0" encoding="UTF-8"?>
<svg xmlns="http://www.w3.org/2000/svg" xmlns:xlink="http://www.w3.org/1999/xlink" width="128px" height="90px" viewBox="0 0 128 90" version="1.1">
<defs>
<radialGradient id="radial0" gradientUnits="userSpaceOnUse" cx="33.714611" cy="19.321037" fx="33.714611" fy="19.321037" r="28.941677" gradientTransform="matrix(-0.68881,-0.56311,1.174219,-1.573385,40.234426,98.146033)">
<stop offset="0" style="stop-color:rgb(50.980392%,76.862745%,96.862745%);stop-opacity:1;"/>
<stop offset="1" style="stop-color:rgb(17.254902%,37.647059%,53.333333%);stop-opacity:0;"/>
</radialGradient>
</defs>
<g id="surface1">
<path style="fill-rule:evenodd;fill:rgb(35.294118%,42.745098%,46.666667%);fill-opacity:1;stroke-width:0.999833;stroke-linecap:round;stroke-linejoin:round;stroke:rgb(36.862745%,76.078431%,72.941176%);stroke-opacity:0.67451;stroke-miterlimit:4;" d="M -0.000596248 -0.00311845 L 12.002628 14.325619 L 18.254307 4.26446 L 23.912762 14.168659 L 35.963444 -0.00311845 L 30.589738 26.725488 L 5.210658 26.699328 Z M -0.000596248 -0.00311845 " transform="matrix(2.14005,0,0,2.239817,3.204401,8.042141)"/>
<path style=" stroke:none;fill-rule:evenodd;fill:url(#radial0);" d="M 3.203125 8.035156 L 28.890625 40.128906 L 42.269531 17.597656 L 54.378906 39.777344 L 80.167969 8.035156 L 68.667969 67.902344 L 14.355469 67.84375 Z M 3.203125 8.035156 "/>
<path style=" stroke:none;fill-rule:evenodd;fill:rgb(100%,100%,0%);fill-opacity:1;" d="M 89.683594 19.84375 C 75.0625 22.28125 64.183594 36.402344 64.152344 52.117188 C 64.183594 57.957031 65.796875 62.914062 68.667969 67.902344 L 105.53125 80.9375 C 116.929688 76.085938 124.410156 64.386719 124.441406 51.347656 C 124.441406 43.046875 121.378906 35.066406 115.90625 29.101562 Z M 89.683594 19.84375 "/>
<path style=" stroke:none;fill-rule:evenodd;fill:rgb(0%,49.019608%,49.019608%);fill-opacity:1;" d="M 94.339844 19.425781 C 92.808594 19.433594 91.269531 19.566406 89.742188 19.820312 C 89.523438 20.792969 89.308594 21.769531 89.070312 22.730469 L 89.265625 22.789062 C 90.523438 22.351562 91.824219 22.007812 93.1875 21.777344 C 95.9375 21.324219 97.503906 22.886719 98.378906 25.550781 L 117.886719 31.480469 C 112.183594 23.855469 103.527344 19.425781 94.339844 19.425781 Z M 98.378906 25.550781 L 89.265625 22.789062 C 89.183594 22.816406 89.089844 22.84375 89.027344 22.871094 C 88.679688 24.160156 88.335938 25.4375 87.882812 26.675781 C 87.414062 28.003906 85.941406 28.632812 85.074219 29.707031 C 85.066406 29.722656 81.523438 35.121094 81.488281 35.15625 C 81.644531 36.019531 82.082031 36.894531 82.070312 37.75 C 82.3125 37.476562 82.628906 37.144531 83.382812 36.203125 C 84.054688 33.066406 83.3125 32.925781 86.484375 31.894531 C 87.253906 31.640625 88.820312 30.769531 88.894531 31.613281 C 89.292969 36.238281 88.957031 40.9375 88.371094 45.554688 C 88.476562 46.152344 88.511719 46.792969 88.636719 47.375 C 89.320312 48.148438 89.714844 49.378906 90.664062 49.695312 C 91.765625 50.070312 92.96875 49.332031 94.113281 49.203125 C 95.191406 49.058594 96.273438 48.945312 97.371094 48.917969 C 98.238281 48.910156 100.089844 49.941406 99.949219 49.058594 C 98.972656 42.664062 100.332031 31.445312 98.378906 25.550781 Z M 88.371094 45.554688 C 88.292969 45.121094 88.195312 44.699219 87.964844 44.324219 C 87.734375 43.972656 87.167969 44.367188 86.769531 44.367188 C 85.4375 44.351562 83.84375 45.078125 82.65625 44.667969 C 83.417969 45 84.382812 45.175781 84.269531 45.898438 C 83.1875 53.578125 74.964844 56.1875 87.625 49.445312 C 87.660156 49.507812 87.722656 49.589844 87.761719 49.640625 C 87.820312 49.359375 87.882812 49.085938 87.929688 48.796875 C 88.09375 47.722656 88.238281 46.644531 88.371094 45.554688 Z M 87.761719 49.648438 C 86.652344 55.441406 83.417969 60.730469 82.503906 66.585938 L 103.210938 73.496094 C 96.988281 74.496094 90.046875 74.199219 82.496094 72.261719 C 82.171875 70.292969 82.230469 68.414062 82.503906 66.585938 L 65.410156 60.679688 C 67.171875 70.082031 81.230469 83.269531 94.339844 83.292969 C 99.96875 83.285156 105.460938 81.613281 110.234375 78.449219 C 109.660156 78.046875 109.234375 77.011719 108.730469 75.339844 L 103.226562 73.496094 C 104.839844 73.230469 106.40625 72.894531 107.9375 72.464844 C 106.671875 67.816406 104.707031 60.601562 100.214844 50.785156 C 99.824219 49.929688 98.382812 50.925781 97.46875 51.027344 C 96.265625 51.136719 95.042969 51.257812 93.84375 51.414062 C 92.523438 51.589844 91.179688 52.433594 89.914062 52.03125 C 88.910156 51.707031 88.449219 50.511719 87.761719 49.648438 Z M 107.9375 72.464844 C 108.230469 73.589844 108.496094 74.515625 108.738281 75.339844 L 112.625 76.640625 C 116.089844 73.808594 118.953125 70.207031 120.972656 66.078125 C 117.144531 68.890625 112.800781 71.101562 107.9375 72.464844 Z M 82.65625 44.667969 C 82.410156 44.570312 82.195312 44.453125 82.035156 44.296875 C 82.011719 44.28125 81.984375 44.261719 81.964844 44.234375 C 81.984375 44.261719 81.984375 44.28125 82.011719 44.304688 C 82.203125 44.488281 82.417969 44.59375 82.65625 44.667969 Z M 81.964844 44.234375 C 81.347656 43.472656 83.382812 42.292969 83.355469 41.1875 C 83.242188 38.503906 82.496094 38.1875 82.042969 38.1875 C 82.035156 38.214844 82.042969 38.230469 82.035156 38.265625 C 81.699219 39.53125 79.824219 40.128906 79.824219 41.464844 C 79.824219 42.652344 81.117188 43.402344 81.964844 44.234375 Z M 82.042969 38.1875 C 82.082031 38.046875 82.070312 37.90625 82.070312 37.75 C 81.671875 38.1875 81.710938 38.1875 82.042969 38.1875 Z M 89.027344 22.871094 C 89.027344 22.832031 89.050781 22.78125 89.070312 22.730469 L 84.382812 21.3125 C 74.800781 24.898438 67.570312 33.378906 65.160156 43.855469 C 72.351562 35.121094 79.492188 26.242188 89.027344 22.871094 Z M 89.027344 22.871094 "/>
<path style="fill-rule:evenodd;fill:rgb(0%,0%,100%);fill-opacity:0.0117647;stroke-width:1.019;stroke-linecap:round;stroke-linejoin:round;stroke:rgb(53.72549%,69.411765%,73.333333%);stroke-opacity:1;stroke-miterlimit:4;" d="M 50.167504 17.291077 C 50.167504 10.435607 44.651552 4.875828 37.846677 4.875828 C 31.038599 4.875828 25.525849 10.435607 25.525849 17.291077 C 25.525849 24.148086 31.038599 29.704787 37.846677 29.704787 C 44.651552 29.704787 50.167504 24.148086 50.167504 17.291077 Z M 50.167504 17.291077 " transform="matrix(2.439657,0,0,2.538461,2.131934,6.923682)"/>
</g>
</svg>
